<svg xmlns="http://www.w3.org/2000/svg" width="400" height="200" viewBox="0 0 400 200">
  <defs>
    <style>
      .cls-1 {
        fill: #abfffb;
        opacity: 0;
      }

      .cls-2 {
        fill: #e21a1a;
      }
    </style>
  </defs>
  <title>spritesheet_flod_bagerste</title>
  <g id="Layer_2" data-name="Layer 2">
    <g id="_2_dele" data-name="2 dele">
      <rect class="cls-1" width="400" height="200"/>
      <path class="cls-2" d="M269,27.25c-16.19-1.58-45.34,3.54-33.8,7.66,12.84,4.58,15,13.61,14,17.3-1.61,6.22-36.8-2.46-49-2.65-27.65-.44-12.43,14.19.92,17.43,32.2,7.81,27,21.22,21.09,27.51-14.4,15.2-86.68-.23-115.57,0-83.69.67-78,78.54-78,78.54H371.35s-73.88-21.77-79.28-33.78c-13.28-29.5,65.35-10.37,57.25-27.31-5.53-11.57-73.06-19.56-58.5-30.49,7.59-5.69,41.29-7.84,5.05-14s19.43-9.76,34-20.23c11.53-8.27-12.34-8.82-46.53-8.09-13.93.3-12.23-4.27,5.54-9.64Z"/>
    </g>
  </g>
</svg>
