<svg xmlns="http://www.w3.org/2000/svg" xmlns:xlink="http://www.w3.org/1999/xlink" width="400" height="400" viewBox="0 0 400 400">
  <defs>
    <style>
      .cls-1 {
        fill: #abfffb;
        opacity: 0;
      }

      .cls-2 {
        fill: url(#linear-gradient);
      }

      .cls-3 {
        fill: #fc5124;
      }
    </style>
    <linearGradient id="linear-gradient" x1="300.18" y1="47.76" x2="133.85" y2="226.12" gradientUnits="userSpaceOnUse">
      <stop offset="0" stop-color="#00a8de"/>
      <stop offset="0.06" stop-color="#333391"/>
      <stop offset="0.12" stop-color="#e91388"/>
      <stop offset="0.18" stop-color="#eb782e"/>
      <stop offset="0.24" stop-color="#fde92b"/>
      <stop offset="0.29" stop-color="#009e54"/>
      <stop offset="0.35" stop-color="#00a8de"/>
      <stop offset="0.41" stop-color="#333391"/>
      <stop offset="0.47" stop-color="#e91388"/>
      <stop offset="0.53" stop-color="#eb782e"/>
      <stop offset="0.59" stop-color="#fde92b"/>
      <stop offset="0.65" stop-color="#009e54"/>
      <stop offset="0.71" stop-color="#00a8de"/>
      <stop offset="0.76" stop-color="#333391"/>
      <stop offset="0.8" stop-color="#e91388"/>
      <stop offset="0.85" stop-color="#eb782e"/>
      <stop offset="0.89" stop-color="#fde92b"/>
      <stop offset="0.98" stop-color="#009e54"/>
    </linearGradient>
    <symbol id="regnbue_2.0" data-name="regnbue_2.0" viewBox="0 0 400 200">
      <rect class="cls-1" width="400" height="200"/>
      <path class="cls-2" d="M76.93,173s9.8-49.12,67.21-48.65S224,122.05,230,116.45s24.27-25.67,13.54-33.6-24.74-13.54-15.87-17.74,20.54,1.4,26.14-3.26,7-13.54,3.73-15.41-9-4.39-7.47-11.66S269,27.25,269,27.25l8,1.1s-14,6.2-12.92,10.16c1.82,6.67,36.2,3.84,36.87,10.72.4,4.08-29.22,7.6-30.81,11.38s16.49,10.31,15.26,14.22C284,79.22,270.15,81.92,269,88s35,17.72,24.94,22.4c-38,17.74-43.87,13.07-44.8,25.21-1.81,23.47,51.8,37.33,51.8,37.33Z"/>
    </symbol>
  </defs>
  <title>spritesheet_flod_2</title>
  <g id="template">
    <g>
      <rect class="cls-1" width="400" height="200"/>
      <path class="cls-3" d="M76.93,173s9.8-49.12,67.21-48.65S224,122.05,230,116.45s24.27-25.67,13.54-33.6-24.74-13.54-15.87-17.74,20.54,1.4,26.14-3.26,7-13.54,3.73-15.41-9-4.39-7.47-11.66S269,27.25,269,27.25l8,1.1s-14,6.2-12.92,10.16c1.82,6.67,36.2,3.84,36.87,10.72.4,4.08-29.22,7.6-30.81,11.38s16.49,10.31,15.26,14.22C284,79.22,270.15,81.92,269,88s35,17.72,24.94,22.4c-38,17.74-43.87,13.07-44.8,25.21-1.81,23.47,51.8,37.33,51.8,37.33Z"/>
    </g>
  </g>
  <g id="regnbue_2.0_symbol" data-name="regnbue_2.0 symbol">
    <use width="400" height="200" transform="translate(0 200)" xlink:href="#regnbue_2.0"/>
  </g>
</svg>
