<svg xmlns="http://www.w3.org/2000/svg" viewBox="0 0 692.84 585.42"><defs><style>.cls-1{opacity:0.7;}.cls-2{fill:#c4c4c4;}.cls-3{fill:#8be8e5;}.cls-4{fill:#e0e0e0;}</style></defs><title>mist</title><g id="Layer_2" data-name="Layer 2"><g id="Layer_1-2" data-name="Layer 1"><g class="cls-1"><path class="cls-2" d="M142.16,149.66s48.28-124,137.93-133.55c0,0,27.77-4.71,44.23,22.72s42.8,31.82,74.62,18.66S490,39.92,527.33,59.67s46.09,79,47.19,107.54c0,0,20.85,24.14,28.53,26.34s79,58.16,41.7,135c0,0-6.58,51.58,1.1,71.33,0,0,12.07,52.67-46.09,81.21,0,0-57.06,29.63-70.23,48.28,0,0-28.53,35.12-75.72,7.68,0,0-46.09-64.74-83.4-68,0,0-37.31-8.78-76.82,9.88,0,0-38.41,30.73-103.15,12.07,0,0-79-12.07-70.23-130.59,0,0,8.51-45-.68-63.65,0,0-37.73-43.89-30-86.69,0,0,9.88-31.82,24.14-39.51C113.63,170.51,134.69,166.22,142.16,149.66Z"/><polygon class="cls-3" points="476.86 77.23 469.17 90.4 476.86 106.86 484.54 92.05 476.86 77.23"/><polygon class="cls-3" points="517.46 77.23 530.63 101.38 517.46 122.22 505.39 99.73 517.46 77.23"/><polygon class="cls-3" points="495.28 112.72 498.94 120.03 495.28 128.68 491.29 120.69 495.28 112.72"/></g><g class="cls-1"><path class="cls-4" d="M18.72,49.2c1.59-7.95,12.82-29.44,56-41.78s104.45-7.1,123,0c22.24,8.53,82.13,35.13,92.1,46.53s12.56,23.3,9,30.38c-5.7,11.39-17.09,19.47-38,28-10,4.1-32.28,3.32-39.41,18-3.45,7.13-3.57,17,4.75,31.33,3.26,5.6,8.61,18.19,3.8,25.64-12.65,19.57-24.42,36.12-82.61,53.17-20.45,6-73.54,22.25-111.09,8.07C6.78,237.46-4.54,191.15,1.63,167.89,7,147.51,22.91,118.22,40.56,101.42,48.67,93.7,59.42,89,57.65,78.16c-1.11-6.79-1.42-14.24-19.47-19.47C38.19,58.69,17.3,56.32,18.72,49.2Z"/><polygon class="cls-3" points="76.81 26.94 83.5 43.89 72.34 58.16 66.1 39.87 76.81 26.94"/><polygon class="cls-3" points="92.86 58.16 97.32 71.1 88.45 81.8 83.5 67.53 92.86 58.16"/></g><g class="cls-1"><path class="cls-4" d="M438.36,182.84c61.23-10.44,124.77,44.68,138.46,61.23,16.7,20.18,75.67,27.14,102.28,93.93,8,20.19,10.93,31.81,7,80.71-1.49,18.36,24.35,62.62-16,108.54-22.39,25.48-60.87,58.22-98,57.69-11-.16-39.54-.55-62.25.44-26.11,1.13-70.38-19.35-84-55.35-5.67-15-7.45-13.46,0-64,3.48-23.58,11.7-63-23-92.54-13.3-11.33-45.28-38.18-50.1-48.71-6-13.09-12.32-48.71-9-63.32,2.29-10.21,33.88-34.79,45.92-52.18C397.86,197.43,414.6,186.89,438.36,182.84Z"/><polygon class="cls-3" points="530.9 243.37 522.55 257.98 530.9 275.38 539.94 262.85 530.9 243.37"/></g></g></g></svg>
