<svg xmlns="http://www.w3.org/2000/svg" viewBox="0 0 286.26 177.21"><defs><style>.cls-1{fill:#0b1742;opacity:0.95;}</style></defs><title>sky</title><g id="Layer_2" data-name="Layer 2"><g id="Layer_1-2" data-name="Layer 1"><path class="cls-1" d="M253.51,56.62c0-.51,0-1,0-1.53a44.3,44.3,0,0,0-65.82-38.73,44.3,44.3,0,0,0-61-7.5A44.3,44.3,0,0,0,57.12,33.93,44.3,44.3,0,0,0,20.95,114a44.33,44.33,0,0,0,43.8,51,44.1,44.1,0,0,0,20.7-5.13,44.29,44.29,0,0,0,69.27,1.4A44.3,44.3,0,0,0,232,142.56a44.3,44.3,0,0,0,21.48-85.94Z"/></g></g></svg>
