<svg xmlns="http://www.w3.org/2000/svg" xmlns:xlink="http://www.w3.org/1999/xlink" width="300" height="100" viewBox="0 0 300 100">
  <defs>
    <style>
      .cls-1 {
        fill: #60cc4a;
        opacity: 0;
      }

      .cls-2 {
        fill: #eae3d8;
      }

      .cls-3 {
        fill: #bfbfbf;
      }

      .cls-4 {
        fill: #c6424c;
      }

      .cls-5 {
        fill: #fff;
      }

      .cls-6 {
        fill: #ffa9cc;
      }
    </style>
    <symbol id="svamp1_1" data-name="svamp1_1" viewBox="0 0 75 100">
      <rect class="cls-1" width="75" height="100"/>
      <g>
        <path class="cls-2" d="M48.17,46.21s-5.71.87-7.78,1.12-8.17.17-8.17.17c1.49,2.62-1,11.54-2.66,14.93s-1.54,6-.7,7.76c2.55,5.31,10.75,6,14.63,5.55,3.6-.42,5.78-3.87,5.78-3.87,3.13-4.15,2-9.85,1.1-13A63.86,63.86,0,0,1,48.17,46.21Z"/>
        <path class="cls-3" d="M38.15,47.51a53.36,53.36,0,0,1-5.93,0c-.11,1.17-.64,8-3.27,11.82-.11.16-.2,1.22.74.24l3.59-3.71s-1.08,3.81-.6,4.43c.61.79,3.59-4.68,3.59-4.68s-.18,4.79.67,4.79,2.2-4.72,2.2-4.72.15,4.64,1.56,4.61c1.21,0,1.79-5,1.79-5s.5,4.74,1.87,5c.76.14.65-5.26.65-5.26s2.62,5.13,3.25,4.81c1.13-.59,0-5.07,0-5.07s2.18,4.94,3,4.57-3.15-9-3-13.24c-1,.15-2.3.51-3.41.68C42.79,47.05,40.62,47.36,38.15,47.51Z"/>
        <path class="cls-4" d="M57.78,41.71a15.3,15.3,0,0,0-.44-3.57C56,32.74,52,29.67,49.22,27.61c-.39-.3-.78-.57-1.18-.82a17.29,17.29,0,0,0-5.44-2.18,22.77,22.77,0,0,0-6.71-.38,30.22,30.22,0,0,0-7.21,1.53,16.29,16.29,0,0,0-7.86,6.56,24.36,24.36,0,0,0-2.22,4.17c-.41,1.06-.68,1.9-.72,2v0a16.17,16.17,0,0,0-.54,2.36,11.8,11.8,0,0,0-.12,1.73c0,1.81,3,2.89,5.57,3.52,1.2.29,2.33.49,3.07.62a55.43,55.43,0,0,0,6.55.77,49.86,49.86,0,0,0,5.74,0c2.47-.15,4.64-.46,6.65-.78,1.11-.17,2.18-.35,3.22-.5l.15,0a59.51,59.51,0,0,0,7.29-1.31C57.86,44.19,57.79,43.39,57.78,41.71Z"/>
        <g>
          <path class="cls-5" d="M39.8,26.68c-1.51.07-4.76,2.32-2.56,5.18.93,1.2,4.75.9,5.87-1.6C43.56,29.23,41.29,26.61,39.8,26.68Z"/>
          <path class="cls-5" d="M27.68,28.78c2.67,0,4.32,2.14,4,3.43-.64,2.76-6.14,3.75-7.35.92C23.82,31.87,25.37,28.78,27.68,28.78Z"/>
          <path class="cls-5" d="M33.76,36.87c1.36-3.12,5.35-1.62,6.11-.3s-.12,4.68-3,4.68C35.48,41.25,32.8,39.09,33.76,36.87Z"/>
          <path class="cls-5" d="M26.24,43.88c-.42-1.88.71-4.39,3.88-3.82,2.36.43,2.84,3.57,1.21,4.95S26.52,45.15,26.24,43.88Z"/>
          <path class="cls-5" d="M47.72,37.22c-2.72,0-3.39,3.35-2.58,4.31,1.2,1.39,4.48,1.6,5.21.52S51.27,37.24,47.72,37.22Z"/>
          <path class="cls-5" d="M57.78,41.71a15.3,15.3,0,0,0-.44-3.57,3.19,3.19,0,0,0-3.51,3,3.56,3.56,0,0,0,1.63,3.81C57.86,44.19,57.79,43.39,57.78,41.71Z"/>
          <path class="cls-5" d="M48.87,30c-2,.49-2.93,2.52-1.85,4,.85,1.16,5,2.24,5.69-.77C53.14,31.35,51.38,29.38,48.87,30Z"/>
          <path class="cls-5" d="M22.32,36.68a3,3,0,0,0-1.5-4.36,24.36,24.36,0,0,0-2.22,4.17c-.41,1.06-.68,1.9-.72,2v0S21,39.17,22.32,36.68Z"/>
          <path class="cls-5" d="M17.34,40.87a11.8,11.8,0,0,0-.12,1.73c0,1.81,3,2.89,5.57,3.52h0C24.49,39.65,17.35,40.87,17.34,40.87Z"/>
          <path class="cls-5" d="M35.89,24.23a30.22,30.22,0,0,0-7.21,1.53S32.62,29.93,35.89,24.23Z"/>
          <path class="cls-5" d="M45.53,27.23A4.45,4.45,0,0,0,48,26.79a17.29,17.29,0,0,0-5.44-2.18A3.3,3.3,0,0,0,45.53,27.23Z"/>
          <path class="cls-5" d="M40.83,44.2a3,3,0,0,0-2.68,3.31c2.47-.15,4.64-.46,6.65-.78C44.69,46.05,44.09,43.66,40.83,44.2Z"/>
        </g>
        <g id="Øjne">
          <path d="M25.31,36.6a1.16,1.16,0,0,1,2.1-.73C28.8,37.35,25.32,38.85,25.31,36.6Z"/>
          <path d="M48.68,36.48a1.21,1.21,0,0,1,2.18,0,1.18,1.18,0,0,1-1.09,1.78C49.36,38.26,48.15,37.43,48.68,36.48Z"/>
        </g>
        <path class="cls-6" d="M34.19,39.61h6.17s.33,4.12-3.41,4.12C33.56,43.73,34.19,39.61,34.19,39.61Z"/>
      </g>
    </symbol>
    <symbol id="svamp1_2" data-name="svamp1_2" viewBox="0 0 75 100">
      <rect class="cls-1" width="75" height="100"/>
      <g>
        <path class="cls-2" d="M48.17,44.21s-5.71.87-7.78,1.12-8.17.17-8.17.17c1.49,2.62-1,11.54-2.66,14.93s-1.54,8-.7,9.76c2.55,5.31,10.75,6,14.63,5.55,3.6-.42,6.31-4.65,6.31-4.65C52.93,67,51.32,60,50.37,56.91A63.86,63.86,0,0,1,48.17,44.21Z"/>
        <path class="cls-3" d="M38.15,45.51a52.3,52.3,0,0,1-5.94-.09c-.1,1.18-.63,8.13-3.26,11.9-.11.16-.2,1.22.74.24l3.59-3.71s-1.08,3.81-.6,4.43c.61.79,3.59-4.68,3.59-4.68s-.18,4.79.67,4.79,2.2-4.72,2.2-4.72.15,4.64,1.56,4.61c1.21,0,1.79-5,1.79-5s.5,4.74,1.87,5c.76.14.65-5.26.65-5.26s2.62,5.13,3.25,4.81c1.13-.59,0-5.07,0-5.07s2.18,4.94,3,4.57-3.15-8.92-3-13.14c-1,.15-2.3.41-3.41.58C42.79,45.05,40.62,45.36,38.15,45.51Z"/>
        <path class="cls-4" d="M57.78,39.71a15.3,15.3,0,0,0-.44-3.57C56,30.74,52,27.67,49.22,25.61c-.39-.3-.78-.57-1.18-.82a17.29,17.29,0,0,0-5.44-2.18,22.77,22.77,0,0,0-6.71-.38,30.22,30.22,0,0,0-7.21,1.53,16.29,16.29,0,0,0-7.86,6.56,24.36,24.36,0,0,0-2.22,4.17c-.41,1.06-.68,1.9-.72,2v0a16.17,16.17,0,0,0-.54,2.36,11.8,11.8,0,0,0-.12,1.73c0,1.81,3,2.89,5.57,3.52,1.2.29,2.33.49,3.07.62a55.43,55.43,0,0,0,6.55.77,49.86,49.86,0,0,0,5.74,0c2.47-.15,4.64-.46,6.65-.78,1.11-.17,2.18-.35,3.22-.5l.15,0a59.51,59.51,0,0,0,7.29-1.31C57.86,42.19,57.79,41.39,57.78,39.71Z"/>
        <g>
          <path class="cls-5" d="M39.8,24.68c-1.51.07-4.76,2.32-2.56,5.18.93,1.2,4.75.9,5.87-1.6C43.56,27.23,41.29,24.61,39.8,24.68Z"/>
          <path class="cls-5" d="M27.68,26.78c2.67,0,4.32,2.14,4,3.43-.64,2.76-6.14,3.75-7.35.92C23.82,29.87,25.37,26.78,27.68,26.78Z"/>
          <path class="cls-5" d="M33.76,34.87c1.36-3.12,5.35-1.62,6.11-.3s-.12,4.68-3,4.68C35.48,39.25,32.8,37.09,33.76,34.87Z"/>
          <path class="cls-5" d="M26.24,41.88c-.42-1.88.71-4.39,3.88-3.82,2.36.43,2.84,3.57,1.21,4.95S26.52,43.15,26.24,41.88Z"/>
          <path class="cls-5" d="M47.72,35.22c-2.72,0-3.39,3.35-2.58,4.31,1.2,1.39,4.48,1.6,5.21.52S51.27,35.24,47.72,35.22Z"/>
          <path class="cls-5" d="M57.78,39.71a15.3,15.3,0,0,0-.44-3.57,3.19,3.19,0,0,0-3.51,3,3.56,3.56,0,0,0,1.63,3.81C57.86,42.19,57.79,41.39,57.78,39.71Z"/>
          <path class="cls-5" d="M48.87,28c-2,.49-2.93,2.52-1.85,4,.85,1.16,5,2.24,5.69-.77C53.14,29.35,51.38,27.38,48.87,28Z"/>
          <path class="cls-5" d="M22.32,34.68a3,3,0,0,0-1.5-4.36,24.36,24.36,0,0,0-2.22,4.17c-.41,1.06-.68,1.9-.72,2v0S21,37.17,22.32,34.68Z"/>
          <path class="cls-5" d="M17.34,38.87a11.8,11.8,0,0,0-.12,1.73c0,1.81,3,2.89,5.57,3.52h0C24.49,37.65,17.35,38.87,17.34,38.87Z"/>
          <path class="cls-5" d="M35.89,22.23a30.22,30.22,0,0,0-7.21,1.53S32.62,27.93,35.89,22.23Z"/>
          <path class="cls-5" d="M45.53,25.23A4.45,4.45,0,0,0,48,24.79a17.29,17.29,0,0,0-5.44-2.18A3.3,3.3,0,0,0,45.53,25.23Z"/>
          <path class="cls-5" d="M40.83,42.2a3,3,0,0,0-2.68,3.31c2.47-.15,4.64-.46,6.65-.78C44.69,44.05,44.09,41.66,40.83,42.2Z"/>
        </g>
        <g id="Øjne-2" data-name="Øjne">
          <path d="M25.31,34.6a1.16,1.16,0,0,1,2.1-.73C28.8,35.35,25.32,36.85,25.31,34.6Z"/>
          <path d="M48.68,34.48a1.21,1.21,0,0,1,2.18,0,1.18,1.18,0,0,1-1.09,1.78C49.36,36.26,48.15,35.43,48.68,34.48Z"/>
        </g>
        <path class="cls-6" d="M34.19,37.61h6.17s.33,4.12-3.41,4.12C33.56,41.73,34.19,37.61,34.19,37.61Z"/>
      </g>
    </symbol>
    <symbol id="svamp1_3" data-name="svamp1_3" viewBox="0 0 75 100">
      <rect class="cls-1" width="75" height="100"/>
      <g>
        <path class="cls-2" d="M31.73,44.21s5.7.87,7.77,1.12,8.18.17,8.18.17c-1.5,2.62,1,11.54,2.65,14.93s1.55,8,.7,9.76c-2.55,5.31-10.74,6-14.63,5.55-3.6-.42-6.3-4.65-6.3-4.65C27,67,28.57,60,29.52,56.91A63.44,63.44,0,0,0,31.73,44.21Z"/>
        <path class="cls-3" d="M41.47,44.54c1.74.11,4.08-.3,6.18-.42.1,1.18,1,9.43,3.63,13.2.11.16.2,1.22-.74.24l-3.6-3.71s1.09,3.81.61,4.43C46.93,59.07,44,53.6,44,53.6s.18,4.79-.68,4.79-2.2-4.72-2.2-4.72-.15,4.64-1.55,4.61c-1.21,0-1.79-5-1.79-5s-.5,4.74-1.88,5c-.75.14-.64-5.26-.64-5.26S32.59,58.11,32,57.79c-1.12-.59,0-5.07,0-5.07s-2.17,4.94-3,4.57,2.85-8.87,2.75-13.08c1,.15,2.58.35,3.7.52C37.44,45.05,39,44.4,41.47,44.54Z"/>
        <path class="cls-4" d="M57.78,39.71a15.3,15.3,0,0,0-.44-3.57C56,30.74,52,27.67,49.22,25.61c-.39-.3-.78-.57-1.18-.82a17.29,17.29,0,0,0-5.44-2.18,22.77,22.77,0,0,0-6.71-.38,30.22,30.22,0,0,0-7.21,1.53,16.29,16.29,0,0,0-7.86,6.56,24.36,24.36,0,0,0-2.22,4.17c-.41,1.06-.68,1.9-.72,2v0a16.17,16.17,0,0,0-.54,2.36,11.8,11.8,0,0,0-.12,1.73c0,1.81,3,2.89,5.57,3.52,1.2.29,2.33.49,3.07.62a55.43,55.43,0,0,0,6.55.77,49.86,49.86,0,0,0,5.74,0c2.47-.15,4.64-.46,6.65-.78,1.11-.17,2.18-.35,3.22-.5l.15,0a59.51,59.51,0,0,0,7.29-1.31C57.86,42.19,57.79,41.39,57.78,39.71Z"/>
        <g>
          <path class="cls-5" d="M39.8,24.68c-1.51.07-4.76,2.32-2.56,5.18.93,1.2,4.75.9,5.87-1.6C43.56,27.23,41.29,24.61,39.8,24.68Z"/>
          <path class="cls-5" d="M27.68,26.78c2.67,0,4.32,2.14,4,3.43-.64,2.76-6.14,3.75-7.35.92C23.82,29.87,25.37,26.78,27.68,26.78Z"/>
          <path class="cls-5" d="M33.76,34.87c1.36-3.12,5.35-1.62,6.11-.3s-.12,4.68-3,4.68C35.48,39.25,32.8,37.09,33.76,34.87Z"/>
          <path class="cls-5" d="M26.24,41.88c-.42-1.88.71-4.39,3.88-3.82,2.36.43,2.84,3.57,1.21,4.95S26.52,43.15,26.24,41.88Z"/>
          <path class="cls-5" d="M47.72,35.22c-2.72,0-3.39,3.35-2.58,4.31,1.2,1.39,4.48,1.6,5.21.52S51.27,35.24,47.72,35.22Z"/>
          <path class="cls-5" d="M57.78,39.71a15.3,15.3,0,0,0-.44-3.57,3.19,3.19,0,0,0-3.51,3,3.56,3.56,0,0,0,1.63,3.81C57.86,42.19,57.79,41.39,57.78,39.71Z"/>
          <path class="cls-5" d="M48.87,28c-2,.49-2.93,2.52-1.85,4,.85,1.16,5,2.24,5.69-.77C53.14,29.35,51.38,27.38,48.87,28Z"/>
          <path class="cls-5" d="M22.32,34.68a3,3,0,0,0-1.5-4.36,24.36,24.36,0,0,0-2.22,4.17c-.41,1.06-.68,1.9-.72,2v0S21,37.17,22.32,34.68Z"/>
          <path class="cls-5" d="M17.34,38.87a11.8,11.8,0,0,0-.12,1.73c0,1.81,3,2.89,5.57,3.52h0C24.49,37.65,17.35,38.87,17.34,38.87Z"/>
          <path class="cls-5" d="M35.89,22.23a30.22,30.22,0,0,0-7.21,1.53S32.62,27.93,35.89,22.23Z"/>
          <path class="cls-5" d="M45.53,25.23A4.45,4.45,0,0,0,48,24.79a17.29,17.29,0,0,0-5.44-2.18A3.3,3.3,0,0,0,45.53,25.23Z"/>
          <path class="cls-5" d="M40.83,42.2a3,3,0,0,0-2.68,3.31c2.47-.15,4.64-.46,6.65-.78C44.69,44.05,44.09,41.66,40.83,42.2Z"/>
        </g>
        <g id="Øjne-3" data-name="Øjne">
          <path d="M25.31,34.6a1.16,1.16,0,0,1,2.1-.73C28.8,35.35,25.32,36.85,25.31,34.6Z"/>
          <path d="M48.68,34.48a1.21,1.21,0,0,1,2.18,0,1.18,1.18,0,0,1-1.09,1.78C49.36,36.26,48.15,35.43,48.68,34.48Z"/>
        </g>
        <path class="cls-6" d="M40.33,37.61H34.15s-.33,4.12,3.41,4.12C41,41.73,40.33,37.61,40.33,37.61Z"/>
      </g>
    </symbol>
    <symbol id="svamp1_4" data-name="svamp1_4" viewBox="0 0 75 100">
      <rect class="cls-1" width="75" height="100"/>
      <g>
        <path class="cls-2" d="M31.44,46.21s5.71.87,7.78,1.12,7.93-1.95,7.93-1.95C45.65,48,48.35,59,50,62.43s1.55,6,.71,7.76C48.2,75.5,40,76.2,36.11,75.74c-3.6-.42-5.77-3.87-5.77-3.87-3.13-4.15-2.06-9.85-1.1-13A63.86,63.86,0,0,0,31.44,46.21Z"/>
        <path class="cls-3" d="M40.93,46.73c1.74.11,4-.62,6-.74.11,1.17,1.05,9.56,3.69,13.33.11.16.2,1.22-.74.24l-3.6-3.71s1.09,3.81.61,4.43c-.62.79-3.59-4.68-3.59-4.68s.18,4.79-.68,4.79-2.2-4.72-2.2-4.72-.15,4.64-1.55,4.61c-1.21,0-1.79-5-1.79-5s-.5,4.74-1.88,5c-.75.14-.64-5.26-.64-5.26S32,60.11,31.34,59.79c-1.12-.59,0-5.07,0-5.07s-2.17,4.94-3,4.57,3-8.86,2.88-13.08l3.58.52C36.82,47.05,38.45,46.59,40.93,46.73Z"/>
        <path class="cls-4" d="M57.78,41.71a15.3,15.3,0,0,0-.44-3.57C56,32.74,52,29.67,49.22,27.61c-.39-.3-.78-.57-1.18-.82a17.29,17.29,0,0,0-5.44-2.18,22.77,22.77,0,0,0-6.71-.38,30.22,30.22,0,0,0-7.21,1.53,16.29,16.29,0,0,0-7.86,6.56,24.36,24.36,0,0,0-2.22,4.17c-.41,1.06-.68,1.9-.72,2v0a16.17,16.17,0,0,0-.54,2.36,11.8,11.8,0,0,0-.12,1.73c0,1.81,3,2.89,5.57,3.52,1.2.29,2.33.49,3.07.62a55.43,55.43,0,0,0,6.55.77,49.86,49.86,0,0,0,5.74,0c2.47-.15,4.64-.46,6.65-.78,1.11-.17,2.18-.35,3.22-.5l.15,0a59.51,59.51,0,0,0,7.29-1.31C57.86,44.19,57.79,43.39,57.78,41.71Z"/>
        <g>
          <path class="cls-5" d="M39.8,26.68c-1.51.07-4.76,2.32-2.56,5.18.93,1.2,4.75.9,5.87-1.6C43.56,29.23,41.29,26.61,39.8,26.68Z"/>
          <path class="cls-5" d="M27.68,28.78c2.67,0,4.32,2.14,4,3.43-.64,2.76-6.14,3.75-7.35.92C23.82,31.87,25.37,28.78,27.68,28.78Z"/>
          <path class="cls-5" d="M33.76,36.87c1.36-3.12,5.35-1.62,6.11-.3s-.12,4.68-3,4.68C35.48,41.25,32.8,39.09,33.76,36.87Z"/>
          <path class="cls-5" d="M26.24,43.88c-.42-1.88.71-4.39,3.88-3.82,2.36.43,2.84,3.57,1.21,4.95S26.52,45.15,26.24,43.88Z"/>
          <path class="cls-5" d="M47.72,37.22c-2.72,0-3.39,3.35-2.58,4.31,1.2,1.39,4.48,1.6,5.21.52S51.27,37.24,47.72,37.22Z"/>
          <path class="cls-5" d="M57.78,41.71a15.3,15.3,0,0,0-.44-3.57,3.19,3.19,0,0,0-3.51,3,3.56,3.56,0,0,0,1.63,3.81C57.86,44.19,57.79,43.39,57.78,41.71Z"/>
          <path class="cls-5" d="M48.87,30c-2,.49-2.93,2.52-1.85,4,.85,1.16,5,2.24,5.69-.77C53.14,31.35,51.38,29.38,48.87,30Z"/>
          <path class="cls-5" d="M22.32,36.68a3,3,0,0,0-1.5-4.36,24.36,24.36,0,0,0-2.22,4.17c-.41,1.06-.68,1.9-.72,2v0S21,39.17,22.32,36.68Z"/>
          <path class="cls-5" d="M17.34,40.87a11.8,11.8,0,0,0-.12,1.73c0,1.81,3,2.89,5.57,3.52h0C24.49,39.65,17.35,40.87,17.34,40.87Z"/>
          <path class="cls-5" d="M35.89,24.23a30.22,30.22,0,0,0-7.21,1.53S32.62,29.93,35.89,24.23Z"/>
          <path class="cls-5" d="M45.53,27.23A4.45,4.45,0,0,0,48,26.79a17.29,17.29,0,0,0-5.44-2.18A3.3,3.3,0,0,0,45.53,27.23Z"/>
          <path class="cls-5" d="M40.83,44.2a3,3,0,0,0-2.68,3.31c2.47-.15,4.64-.46,6.65-.78C44.69,46.05,44.09,43.66,40.83,44.2Z"/>
        </g>
        <g id="Øjne-4" data-name="Øjne">
          <path d="M25.31,36.6a1.16,1.16,0,0,1,2.1-.73C28.8,37.35,25.32,38.85,25.31,36.6Z"/>
          <path d="M48.68,36.48a1.21,1.21,0,0,1,2.18,0,1.18,1.18,0,0,1-1.09,1.78C49.36,38.26,48.15,37.43,48.68,36.48Z"/>
        </g>
        <path class="cls-6" d="M40.33,39.61H34.15s-.33,4.12,3.41,4.12C41,43.73,40.33,39.61,40.33,39.61Z"/>
      </g>
    </symbol>
  </defs>
  <title>spritesheet_svamp1</title>
  <g id="Layer_2" data-name="Layer 2">
    <use width="75" height="100" xlink:href="#svamp1_1"/>
    <use width="75" height="100" transform="translate(75)" xlink:href="#svamp1_2"/>
    <use width="75" height="100" transform="translate(150)" xlink:href="#svamp1_3"/>
    <use width="75" height="100" transform="translate(225)" xlink:href="#svamp1_4"/>
  </g>
</svg>
